<svg width="24" height="25" viewBox="0 0 24 25" fill="none" xmlns="http://www.w3.org/2000/svg">
<path d="M12 4.62109C13.0609 4.62109 14.0783 5.03897 14.8284 5.7828C15.5786 6.52663 16 7.53548 16 8.58741C16 9.63934 15.5786 10.6482 14.8284 11.392C14.0783 12.1358 13.0609 12.5537 12 12.5537C10.9391 12.5537 9.92172 12.1358 9.17157 11.392C8.42143 10.6482 8 9.63934 8 8.58741C8 7.53548 8.42143 6.52663 9.17157 5.7828C9.92172 5.03897 10.9391 4.62109 12 4.62109ZM12 14.5369C16.42 14.5369 20 16.3118 20 18.5032V20.4864H4V18.5032C4 16.3118 7.58 14.5369 12 14.5369Z" fill="white"/>
</svg>
