<svg width="24" height="25" viewBox="0 0 24 25" fill="none" xmlns="http://www.w3.org/2000/svg">
<path d="M21 19.4863L15.846 14.3757C16.7988 12.9398 17.1805 11.2044 16.917 9.50553C16.6536 7.80664 15.7638 6.2651 14.4199 5.17938C13.076 4.09366 11.3737 3.54099 9.64247 3.62837C7.91125 3.71575 6.27431 4.43696 5.04857 5.65238C3.82283 6.8678 3.09549 8.49095 3.00737 10.2076C2.91925 11.9242 3.47662 13.6122 4.57156 14.9448C5.6665 16.2773 7.22113 17.1596 8.93445 17.4209C10.6478 17.6821 12.3979 17.3037 13.846 16.3589L19 21.4695L21 19.4863ZM5 10.5621C5 7.82833 7.243 5.60421 10 5.60421C12.757 5.60421 15 7.82833 15 10.5621C15 13.2959 12.757 15.52 10 15.52C7.243 15.52 5 13.2959 5 10.5621Z" fill="white"/>
</svg>
